cl1 = 1;
Point(1) = {-5, -2, -1, cl1};
Point(2) = {5, -2, -1, cl1};
Point(3) = {5, 2, -1, cl1};
Point(4) = {-5, 2, -1, cl1};
Point(5) = {0, 0, -1, cl1};
Point(6) = {0.5, 0, -1, cl1};
Point(7) = {-0.5, 0, -1, cl1};
Point(8) = {0, 0.5, -1, cl1};
Point(9) = {0, -0.5, -1, cl1};
Point(10) = {-2.5, 0, -1, cl1};
Point(11) = {-2.5, -0.5, -1, cl1};
Point(12) = {-2.5, 0.5, -1, cl1};
Point(13) = {-3, 0, -1, cl1};
Point(14) = {-2, 0, -1, cl1};
Point(15) = {2.5, 0, -1, cl1};
Point(16) = {2, 0, -1, cl1};
Point(17) = {3, 0, -1, cl1};
Point(18) = {2.5, 0.5, -1, cl1};
Point(19) = {2.5, -0.5, -1, cl1};
Point(20) = {5, 2, 1, cl1};
Point(21) = {-5, 2, 1, cl1};
Point(25) = {-5, -2, 1, cl1};
Point(29) = {5, -2, 1, cl1};
Point(36) = {-2, 0, 1, cl1};
Point(37) = {-2.5, 0, 1, cl1};
Point(38) = {-2.5, -0.5, 1, cl1};
Point(43) = {-3, 0, 1, cl1};
Point(48) = {-2.5, 0.5, 1, cl1};
Point(56) = {0, 0.5, 1, cl1};
Point(57) = {0, 0, 1, cl1};
Point(58) = {0.5, 0, 1, cl1};
Point(63) = {0, -0.5, 1, cl1};
Point(68) = {-0.5, 0, 1, cl1};
Point(76) = {2.5, 0.5, 1, cl1};
Point(77) = {2.5, 0, 1, cl1};
Point(78) = {3, 0, 1, cl1};
Point(83) = {2.5, -0.5, 1, cl1};
Point(88) = {2, 0, 1, cl1};
Line(1) = {1, 2};
Line(2) = {2, 3};
Line(3) = {3, 4};
Line(4) = {4, 1};
Circle(5) = {12, 10, 13};
Circle(6) = {13, 10, 11};
Circle(7) = {11, 10, 14};
Circle(8) = {14, 10, 12};
Circle(9) = {8, 5, 7};
Circle(10) = {7, 5, 9};
Circle(11) = {9, 5, 6};
Circle(12) = {6, 5, 8};
Circle(13) = {18, 15, 16};
Circle(14) = {16, 15, 19};
Circle(15) = {19, 15, 17};
Circle(16) = {17, 15, 18};
Line(23) = {20, 21};
Line(24) = {21, 25};
Line(25) = {25, 29};
Line(26) = {29, 20};
Circle(27) = {36, 37, 38};
Circle(28) = {38, 37, 43};
Circle(29) = {43, 37, 48};
Circle(30) = {48, 37, 36};
Circle(31) = {56, 57, 58};
Circle(32) = {58, 57, 63};
Circle(33) = {63, 57, 68};
Circle(34) = {68, 57, 56};
Circle(35) = {76, 77, 78};
Circle(36) = {78, 77, 83};
Circle(37) = {83, 77, 88};
Circle(38) = {88, 77, 76};
Line(40) = {3, 20};
Line(41) = {4, 21};
Line(45) = {1, 25};
Line(49) = {2, 29};
Line(56) = {14, 36};
Line(57) = {11, 38};
Line(61) = {13, 43};
Line(65) = {12, 48};
Line(72) = {8, 56};
Line(73) = {6, 58};
Line(77) = {9, 63};
Line(81) = {7, 68};
Line(88) = {18, 76};
Line(89) = {17, 78};
Line(93) = {19, 83};
Line(97) = {16, 88};
Line Loop(21) = {3, 4, 1, 2, -7, -6, -5, -8, -12, -11, -10, -9, -16, -15, -14, -13};
Plane Surface(21) = {21};
Line Loop(42) = {3, 41, -23, -40};
Ruled Surface(42) = {42};
Line Loop(46) = {4, 45, -24, -41};
Ruled Surface(46) = {46};
Line Loop(50) = {1, 49, -25, -45};
Ruled Surface(50) = {50};
Line Loop(54) = {2, 40, -26, -49};
Ruled Surface(54) = {54};
Line Loop(58) = {-7, 57, -27, -56};
Ruled Surface(58) = {58};
Line Loop(62) = {-6, 61, -28, -57};
Ruled Surface(62) = {62};
Line Loop(66) = {-5, 65, -29, -61};
Ruled Surface(66) = {66};
Line Loop(70) = {-8, 56, -30, -65};
Ruled Surface(70) = {70};
Line Loop(74) = {-12, 73, -31, -72};
Ruled Surface(74) = {74};
Line Loop(78) = {-11, 77, -32, -73};
Ruled Surface(78) = {78};
Line Loop(82) = {-10, 81, -33, -77};
Ruled Surface(82) = {82};
Line Loop(86) = {-9, 72, -34, -81};
Ruled Surface(86) = {86};
Line Loop(90) = {-16, 89, -35, -88};
Ruled Surface(90) = {90};
Line Loop(94) = {-15, 93, -36, -89};
Ruled Surface(94) = {94};
Line Loop(98) = {-14, 97, -37, -93};
Ruled Surface(98) = {98};
Line Loop(102) = {-13, 88, -38, -97};
Ruled Surface(102) = {102};
Line Loop(103) = {23, 24, 25, 26, 27, 28, 29, 30, 31, 32, 33, 34, 35, 36, 37, 38};
Plane Surface(103) = {103};
Surface Loop(1) = {21, 103, 42, 46, 50, 54, 58, 62, 66, 70, 74, 78, 82, 86, 90, 94, 98, 102};
Volume(1) = {1};
